<svg width="700" height="128" viewBox="0 0 700 128" fill="none" xmlns="http://www.w3.org/2000/svg">
<path d="M645.606 34.0026H661.088L688.535 78.962H689.539L688.535 70.9934V34.0026H700V93.9764H684.519L657.071 49.017H656.067L657.071 56.9856V93.9764H645.606V34.0026Z" fill="black"/>
<path d="M601.255 32C620.67 32 634.644 46.0079 634.644 63.958C634.644 81.9082 620.67 95.9161 601.255 95.9161C581.841 95.9161 567.866 81.9082 567.866 63.958C567.866 46.0079 581.757 32 601.255 32ZM601.255 84.9279C613.724 84.9279 622.678 75.9528 622.678 63.958C622.678 51.9633 613.724 42.9882 601.255 42.9882C588.787 42.9882 579.833 51.9633 579.833 63.958C579.833 75.9528 588.787 84.9279 601.255 84.9279Z" fill="black"/>
<path d="M545.355 34.0026H556.82V93.9764H545.355V34.0026Z" fill="black"/>
<path d="M483.013 34.0026H537.406V44.9908H515.983V93.9764H504.519V44.9908H483.013V34.0026Z" fill="black"/>
<path d="M440.585 34.0026H467.698L484.518 93.9764H473.054L469.037 79.4653H439.079L435.062 93.9764H423.598L440.585 34.0026ZM466.108 68.5609L459.665 45.0747H448.702L442.259 68.5609H466.108Z" fill="black"/>
<path d="M370.879 34.0026H425.272V44.9908H403.85V93.9764H392.385V44.9908H370.879V34.0026Z" fill="black"/>
<path d="M326.444 76.0367C326.946 77.7982 327.866 79.4757 329.122 80.8178C331.381 83.2503 335.147 85.5151 341.925 85.5151C351.883 85.5151 355.9 81.4888 355.9 77.5465C355.9 71.1717 346.193 69.6618 336.486 67.5649C326.695 65.4679 317.071 61.3578 317.071 50.0341C317.071 40.5557 325.523 32 341.507 32C352.72 32 359.163 36.5295 362.845 40.9751C365.021 43.6592 366.527 46.6789 367.448 49.9502H355.481C354.979 48.692 354.226 47.3499 352.971 46.2595C350.963 44.3303 347.448 42.4849 341.507 42.4849C332.469 42.4849 329.038 45.5046 329.038 49.4469C329.038 53.9764 334.561 56.0734 341.339 57.4155C352.804 59.6802 367.95 62.5321 367.95 76.8755C367.95 86.8571 359.08 95.8322 342.009 95.8322C329.373 95.8322 322.26 90.9672 318.494 85.8506C316.318 82.9148 314.812 79.5596 314.143 75.8689H326.444V76.0367Z" fill="black"/>
<path d="M292.385 63.958C292.385 45.4207 277.406 32 256.653 32H229.958V96H256.653C277.322 95.9161 292.385 82.4954 292.385 63.958ZM248.954 79.7274V48.1887H256.15C266.109 48.1887 272.385 54.228 272.385 63.958C272.385 73.6881 266.192 79.7274 256.15 79.7274H248.954V79.7274Z" fill="black"/>
<path d="M208.954 73.3525C210.962 72.4299 212.803 71.0039 214.477 69.2425C218.243 65.384 220.084 60.6029 220.084 54.983C220.084 41.3945 209.456 32 194.31 32H160V96H178.996V77.5465H190.628L201.004 96H220.167L207.782 73.9397L208.954 73.3525ZM192.469 62.1966H179.079V47.6855H192.469C197.155 47.6855 200.669 50.789 200.669 54.8991C200.669 59.093 197.155 62.1966 192.469 62.1966Z" fill="black"/>
<path d="M63.975 92.8638L128 116.554V95.3127L63.975 71.6221L0 95.3127V116.554L63.975 92.8638Z" fill="black"/>
<path d="M63.975 92.8638L0 116.555L23.7464 128L63.975 113.106L104.254 128L128 116.555L63.975 92.8638Z" fill="#19C1CE"/>
<path d="M63.975 35.1364L0 11.4455V32.6872L63.975 56.3781L128 32.6872V11.4455L63.975 35.1364Z" fill="black"/>
<path d="M63.975 35.1364L128 11.4455L104.254 0L63.975 14.8943L23.7464 0L0 11.4455L63.975 35.1364Z" fill="#19C1CE"/>
</svg>
